<svg xmlns="http://www.w3.org/2000/svg" viewBox="0 0 700 380" width="700" height="380">
  <style>
    text{font-family:ui-monospace,SFMono-Regular,"SF Mono",Menlo,Consolas,"Liberation Mono",monospace;font-size:12.5px}
  </style>
  <rect width="700" height="380" rx="9" fill="#0d1117"/>
  <path d="M9,0 H691 Q700,0 700,9 V46 H0 V9 Q0,0 9,0 Z" fill="#161b22"/>
  <circle cx="24" cy="23" r="6" fill="#ff5f57"/>
  <circle cx="44" cy="23" r="6" fill="#febc2e"/>
  <circle cx="64" cy="23" r="6" fill="#28c840"/>
  <text x="350" y="29" text-anchor="middle" fill="#8b949e" font-weight="500">profile.json</text>
  <text x="676" y="29" text-anchor="end" fill="#7ee787" font-size="10.5" font-weight="600">JSON</text>
  <line x1="0" y1="46" x2="700" y2="46" stroke="#21262d" stroke-width="1"/>
  <text x="28" y="78" fill="#e6edf3">{</text>
  <text x="28" y="96" fill="#7ee787">"name":</text>
  <text x="156" y="96" fill="#ffa657">"Abi Thomas",</text>
  <text x="28" y="114" fill="#7ee787">"role":</text>
  <text x="156" y="114" fill="#ffa657">"Backend / Full-Stack Developer",</text>
  <text x="28" y="132" fill="#7ee787">"status":</text>
  <text x="156" y="132" fill="#ffa657">"<tspan fill="#f0883e">★</tspan> Open to Software Engineer Opportunities",</text>
  <text x="28" y="150" fill="#7ee787">"location":</text>
  <text x="156" y="150" fill="#ffa657">"Kerala, India",</text>
  <text x="28" y="168" fill="#7ee787">"education":</text>
  <text x="156" y="168" fill="#ffa657">"MCA — APJ Abdul Kalam Technological University",</text>
  <text x="28" y="186"><tspan fill="#7ee787">"focus"</tspan><tspan fill="#e6edf3">: [</tspan></text>
  <text x="64" y="204"><tspan fill="#ffa657">"Python"</tspan><tspan fill="#e6edf3">,  </tspan><tspan fill="#ffa657">"Django"</tspan><tspan fill="#e6edf3">,  </tspan><tspan fill="#ffa657">"Django REST Framework"</tspan><tspan fill="#e6edf3">,  </tspan><tspan fill="#ffa657">"REST API Development"</tspan><tspan fill="#e6edf3">,</tspan></text>
  <text x="64" y="222"><tspan fill="#ffa657">"React"</tspan><tspan fill="#e6edf3">,  </tspan><tspan fill="#ffa657">"TypeScript"</tspan><tspan fill="#e6edf3">,  </tspan><tspan fill="#ffa657">"Node.js"</tspan><tspan fill="#e6edf3">,  </tspan><tspan fill="#ffa657">"PostgreSQL"</tspan></text>
  <text x="28" y="240" fill="#e6edf3">],</text>
  <text x="28" y="258"><tspan fill="#7ee787">"links"</tspan><tspan fill="#e6edf3">: {</tspan></text>
  <text x="64" y="276" fill="#7ee787">"github":</text>
  <text x="156" y="276" fill="#ffa657">"Aby020",</text>
  <text x="64" y="294" fill="#7ee787">"linkedin":</text>
  <text x="156" y="294" fill="#ffa657">"abithomas-dev",</text>
  <text x="64" y="312" fill="#7ee787">"email":</text>
  <text x="156" y="312" fill="#ffa657">"abithomas520@gmail.com",</text>
  <text x="28" y="330" fill="#e6edf3">},</text>
  <text x="28" y="348" fill="#7ee787">"portfolio":</text>
  <text x="156" y="348" fill="#ffa657">"https://abi-thomas-portfolio.vercel.app/",</text>
  <text x="28" y="366" fill="#e6edf3">}</text>
  <rect width="700" height="380" rx="9" fill="none" stroke="#30363d" stroke-width="1"/>
</svg>